<?xml version="1.0" encoding="utf-8"?>
<!-- Generator: Adobe Illustrator 25.2.0, SVG Export Plug-In . SVG Version: 6.00 Build 0)  -->
<svg version="1.1" id="Capa_2_1_" xmlns="http://www.w3.org/2000/svg" xmlns:xlink="http://www.w3.org/1999/xlink" x="0px" y="0px"
	 viewBox="0 0 74.6 118.3" style="enable-background:new 0 0 74.6 118.3;" xml:space="preserve">
<style type="text/css">
	.st0{fill:#6366F1;}
</style>
<g id="Capa_1-2">
	<path d="M16.8,46V30.3c0-0.4-0.1-0.7-0.3-0.9c-0.2-0.2-0.4-0.3-0.8-0.3c-0.1,0-0.3,0-0.5,0.1l-8,3.1c-0.8,0.3-1.1,0.8-1.1,1.6V46
		H1.3C0.4,46,0,46.4,0,47.3v7.5c0,0.9,0.4,1.3,1.3,1.3h4.9v31.1c0,0.4,0.1,0.8,0.3,1c0.2,0.2,0.6,0.3,1,0.3h4.7l4.6-14.1V56.1h6.1
		L26.3,46C26.3,46,16.8,46,16.8,46z"/>
	<path d="M70.2,75.1c-0.3-0.4-0.6-0.5-1.1-0.5c-0.3,0-0.6,0.1-0.9,0.2c-2.7,2.2-5.7,3.4-9.1,3.4c-2.2,0-4.2-0.6-6-1.7
		c-1.8-1.1-3.3-2.6-4.4-4.5s-1.6-3.9-1.6-6.1s0.5-4.2,1.6-6.1c1.1-1.9,2.5-3.3,4.3-4.4c1.8-1.1,3.8-1.6,6-1.6c3.2,0,6.3,1.2,9.2,3.5
		c0.3,0.2,0.6,0.3,0.9,0.3c0.4,0,0.8-0.2,1.1-0.6l3.9-6c0.2-0.3,0.3-0.7,0.3-1c0-0.4-0.2-0.7-0.5-1c-2-1.7-4.3-3.1-6.9-4
		c-2.6-1-5.3-1.4-8.1-1.4c-4.1,0-7.9,1-11.4,3c-0.5,0.3-1,0.6-1.5,0.9l-8.6,26c0.5,1.3,1.1,2.7,1.8,3.9c2,3.4,4.8,6.2,8.3,8.2
		c3.5,2,7.3,3,11.4,3c2.8,0,5.4-0.5,8-1.5s4.8-2.4,6.9-4.1c0.4-0.3,0.6-0.7,0.6-1.1c0-0.3-0.1-0.6-0.3-0.9
		C74.2,81,70.2,75.1,70.2,75.1z"/>
	<path class="st0" d="M9.7,111.4L45.4,3.3c0.7-2,2.3-3.3,4.1-3.3h0.1c3.1,0,5.2,3.6,4.1,6.9L17.9,115.1c-0.6,2-2.3,3.3-4.1,3.3l0,0
		C10.7,118.3,8.6,114.8,9.7,111.4L9.7,111.4z"/>
</g>
</svg>
