<?xml version="1.0" encoding="UTF-8"?><svg id="Capa_2" xmlns="http://www.w3.org/2000/svg" viewBox="0 0 74.55 118.35"><defs><style>.cls-1{fill:#fff;}.cls-2{fill:#6366f1;}</style></defs><g id="Capa_1-2"><path class="cls-1" d="M16.84,45.96v-15.66c0-.4-.1-.71-.27-.94-.19-.23-.44-.34-.77-.34-.09,0-.27,.03-.54,.1l-8,3.14c-.75,.26-1.13,.78-1.13,1.57v12.13H1.32c-.88,0-1.32,.44-1.32,1.32v7.51c0,.89,.44,1.33,1.32,1.33H6.18v31.12c0,.43,.12,.76,.35,.98,.22,.23,.55,.35,.98,.35h4.69l4.64-14.05v-18.4h6.07l3.36-10.16h-9.43Z"/><path class="cls-1" d="M70.23,75.12c-.26-.36-.62-.54-1.08-.54-.26,0-.55,.08-.88,.25-2.68,2.25-5.71,3.38-9.08,3.38-2.19,0-4.21-.55-6.04-1.67-1.83-1.11-3.29-2.61-4.37-4.49s-1.62-3.92-1.62-6.11,.53-4.22,1.6-6.09c1.06-1.86,2.51-3.33,4.34-4.42,1.83-1.08,3.85-1.62,6.04-1.62,3.24,0,6.3,1.17,9.18,3.49,.29,.2,.59,.3,.88,.3,.43,0,.79-.22,1.08-.64l3.93-5.99c.23-.33,.34-.66,.34-.98,0-.36-.18-.71-.54-1.04-2.03-1.73-4.33-3.08-6.92-4.05-2.58-.96-5.28-1.44-8.1-1.44-4.12,0-7.93,1-11.41,3.02-.51,.29-1,.6-1.48,.94l-8.6,25.97c.47,1.35,1.08,2.65,1.83,3.92,2.05,3.45,4.81,6.19,8.3,8.22,3.48,2.03,7.29,3.04,11.41,3.04,2.78,0,5.44-.49,7.98-1.47s4.83-2.36,6.9-4.12c.42-.33,.63-.71,.63-1.13,0-.33-.11-.63-.34-.89l-3.98-5.84Z"/><path class="cls-2" d="M9.72,111.41L45.41,3.27c.65-1.97,2.28-3.27,4.09-3.27h.13c3.08,0,5.19,3.6,4.09,6.95L17.89,115.08c-.65,1.97-2.28,3.27-4.09,3.27h0c-3.07,0-5.19-3.6-4.09-6.94Z"/></g></svg>