<?xml version="1.0" encoding="UTF-8"?><svg id="Capa_2" xmlns="http://www.w3.org/2000/svg" viewBox="0 0 450.21 86.53"><defs><style>.cls-1{fill:#fff;}.cls-2{fill:#6366f1;}</style></defs><g id="Capa_1-2"><path class="cls-1" d="M0,33.67c0-.65,.32-.97,.97-.97h3.52v-8.87c0-.57,.27-.96,.83-1.15l5.85-2.3c.19-.05,.32-.07,.39-.07,.24,0,.42,.08,.56,.25,.13,.17,.2,.39,.2,.68v11.45h7.43c.65,0,.97,.32,.97,.97v5.49c0,.65-.32,.97-.97,.97h-7.43v22.76c0,.65-.31,.97-.93,.97H5.49c-.31,0-.55-.08-.72-.25-.17-.17-.25-.41-.25-.72v-22.76H.97c-.65,0-.97-.32-.97-.97v-5.49Z"/><path class="cls-1" d="M49.39,33.46c1.89,1.15,3.34,2.79,4.34,4.92,1,2.13,1.51,4.63,1.51,7.5v16.91c0,.31-.09,.56-.27,.75-.18,.19-.44,.29-.77,.29h-5.74c-.31,0-.56-.1-.75-.29-.19-.19-.29-.44-.29-.75v-16.98c0-1.22-.31-2.33-.92-3.34s-1.44-1.8-2.48-2.39c-1.04-.59-2.17-.88-3.39-.88-1.29,0-2.49,.3-3.59,.92-1.1,.61-1.97,1.46-2.62,2.55-.65,1.09-.97,2.32-.97,3.68v16.51c0,.65-.34,.97-1.01,.97h-5.81c-.65,0-.97-.32-.97-.97V12.24c0-.62,.32-.93,.97-.93h5.81c.67,0,1.01,.31,1.01,.93v23.69c1.15-1.32,2.53-2.34,4.15-3.09,1.62-.74,3.32-1.11,5.11-1.11,2.56,0,4.79,.57,6.68,1.72Z"/><path class="cls-1" d="M63.19,39.97c1.5-2.52,3.52-4.52,6.08-5.99,2.56-1.47,5.37-2.21,8.43-2.21s5.84,.74,8.4,2.21c2.56,1.47,4.58,3.47,6.07,5.99,1.48,2.52,2.23,5.29,2.23,8.31s-.75,5.78-2.24,8.29c-1.5,2.51-3.52,4.5-6.07,5.98-2.55,1.47-5.34,2.21-8.38,2.21s-5.87-.73-8.43-2.19c-2.56-1.46-4.59-3.45-6.08-5.98-1.5-2.52-2.24-5.29-2.24-8.31s.75-5.78,2.24-8.31Zm6.77,12.76c.79,1.36,1.87,2.45,3.23,3.25,1.36,.8,2.86,1.2,4.49,1.2s3.13-.4,4.5-1.2c1.38-.8,2.46-1.88,3.25-3.23,.79-1.35,1.18-2.84,1.18-4.47s-.39-3.13-1.18-4.5c-.79-1.38-1.87-2.46-3.25-3.27-1.38-.8-2.88-1.2-4.5-1.2s-3.12,.4-4.49,1.2c-1.36,.8-2.44,1.89-3.23,3.27-.79,1.38-1.18,2.88-1.18,4.5s.39,3.09,1.18,4.45Z"/><path class="cls-1" d="M143.18,33.4c1.72,1.11,3.03,2.73,3.93,4.85,.9,2.12,1.35,4.65,1.35,7.59v16.94c0,.34-.09,.59-.27,.77-.18,.18-.42,.27-.74,.27h-5.78c-.31,0-.56-.1-.75-.29-.19-.19-.29-.44-.29-.75v-17.01c0-1.29-.25-2.44-.74-3.45-.49-1-1.17-1.78-2.03-2.32s-1.83-.81-2.91-.81c-1.27,0-2.4,.28-3.39,.84-.99,.56-1.77,1.36-2.33,2.4-.56,1.04-.84,2.26-.84,3.64v16.69c0,.31-.09,.56-.27,.75-.18,.19-.44,.29-.77,.29h-5.74c-.31,0-.56-.1-.75-.29-.19-.19-.29-.44-.29-.75v-17.01c0-1.32-.25-2.47-.74-3.46-.49-.99-1.17-1.76-2.03-2.3s-1.84-.81-2.94-.81c-1.24,0-2.36,.3-3.34,.92-.98,.61-1.74,1.45-2.28,2.53s-.81,2.31-.81,3.7v16.44c0,.69-.34,1.04-1,1.04h-5.74c-.67,0-1.01-.35-1.01-1.04v-29.11c0-.31,.09-.56,.27-.74s.44-.27,.77-.27h4.56c.57,0,.91,.22,1,.65l.61,3.19c1.03-1.51,2.32-2.68,3.88-3.52,1.56-.84,3.25-1.26,5.1-1.26,2.34,0,4.37,.53,6.08,1.58,1.71,1.05,3.02,2.58,3.93,4.59,.91-1.91,2.27-3.42,4.07-4.52,1.81-1.1,3.81-1.65,6.01-1.65,2.42,0,4.49,.56,6.21,1.67Z"/><path class="cls-1" d="M176.83,33.21c2.14,.98,3.8,2.38,4.99,4.2,1.18,1.82,1.78,3.96,1.78,6.43v18.92c0,.34-.09,.6-.27,.79-.18,.19-.42,.29-.74,.29h-4.38c-.19,0-.37-.06-.52-.18-.16-.12-.26-.26-.3-.43l-.54-3.16c-1.1,1.46-2.56,2.61-4.38,3.46-1.82,.85-4.01,1.27-6.57,1.27-2.23,0-4.21-.41-5.94-1.22-1.74-.81-3.09-1.97-4.06-3.48-.97-1.51-1.45-3.27-1.45-5.28,0-2.92,.93-5.12,2.8-6.6s4.51-2.24,7.93-2.26l10.62-.04v-1.51c0-1.89-.61-3.39-1.83-4.5-1.22-1.11-2.78-1.67-4.67-1.67-1.48,0-3,.17-4.54,.52-1.54,.35-2.87,.83-3.97,1.45-.34,.14-.63,.22-.9,.22-.5,0-.83-.18-.97-.54l-1.72-3.34c-.1-.19-.14-.41-.14-.65,0-.57,.35-1.05,1.04-1.44,1.41-.86,3.14-1.53,5.19-2.01,2.05-.48,4.06-.72,6.05-.72,2.85,0,5.34,.49,7.48,1.47Zm-4.88,24.48c1.18-.57,2.12-1.36,2.82-2.37,.69-1,1.04-2.12,1.04-3.34v-.79h-9.58c-1.27,0-2.25,.28-2.94,.84-.69,.56-1.04,1.35-1.04,2.35,0,1.22,.56,2.22,1.69,3,1.12,.78,2.51,1.17,4.16,1.17,1.39,0,2.67-.29,3.86-.86Z"/><path class="cls-1" d="M214.88,50.33c-.88-1.37-2.13-2.49-3.77-3.36-1.64-.88-3.71-1.62-6.22-2.24-1.61-.41-2.81-.78-3.63-1.1-.82-.32-1.37-.66-1.67-1-.29-.35-.45-.78-.45-1.28,0-.76,.34-1.37,1.02-1.81,.68-.44,1.65-.66,2.89-.66,1.32,0,2.71,.23,4.17,.68,1.45,.45,2.77,.99,3.95,1.62,.19,.04,.32,.07,.39,.07,.4,0,.75-.24,1.04-.72l2.33-3.91c.17-.26,.25-.51,.25-.75,0-.43-.26-.79-.79-1.07-1.41-.84-3.14-1.56-5.18-2.19-2.05-.63-4.09-.94-6.16-.94-2.35,0-4.36,.42-6.06,1.27-1.7,.85-3,1.97-3.88,3.38-.88,1.4-1.32,2.91-1.32,4.54,0,2.08,.42,3.79,1.27,5.13,.85,1.34,2.08,2.41,3.68,3.23,1.6,.81,3.7,1.54,6.28,2.19,1.99,.5,3.44,1.02,4.34,1.56,.91,.53,1.37,1.24,1.37,2.1s-.45,1.52-1.33,1.9-2.19,.57-3.91,.57c-2.78,0-5.85-.87-9.23-2.62-.29-.15-.55-.21-.79-.21-.4,0-.74,.21-1,.64l-2.3,4.06c-.17,.23-.26,.49-.26,.75,0,.41,.24,.74,.72,1,1.6,.91,3.54,1.74,5.81,2.49,2.27,.76,4.62,1.13,7.03,1.13,3.36,0,6.11-.58,8.25-1.76l3.78-11.45c-.18-.45-.39-.86-.64-1.25Z"/><path class="cls-1" d="M254.29,54.92c-.19-.26-.45-.39-.79-.39-.19,0-.4,.06-.64,.18-1.96,1.65-4.17,2.47-6.64,2.47-1.6,0-3.08-.4-4.42-1.22-1.34-.81-2.41-1.91-3.2-3.28s-1.18-2.87-1.18-4.47,.39-3.09,1.17-4.45c.78-1.36,1.84-2.43,3.17-3.23,1.34-.79,2.81-1.18,4.42-1.18,2.37,0,4.61,.86,6.71,2.55,.21,.15,.43,.22,.64,.22,.31,0,.58-.16,.79-.47l2.87-4.38c.17-.24,.25-.48,.25-.72,0-.26-.13-.52-.39-.76-1.48-1.26-3.17-2.25-5.06-2.96-1.89-.7-3.86-1.05-5.92-1.05-3.01,0-5.8,.73-8.34,2.21-.37,.21-.73,.44-1.08,.69l-6.29,18.99c.34,.99,.79,1.94,1.34,2.87,1.5,2.52,3.52,4.53,6.07,6.01,2.54,1.48,5.33,2.22,8.34,2.22,2.03,0,3.98-.36,5.83-1.07s3.53-1.73,5.04-3.01c.31-.24,.46-.52,.46-.83,0-.24-.08-.46-.25-.65l-2.91-4.27Z"/><path class="cls-1" d="M263.4,39.97c1.5-2.52,3.52-4.52,6.08-5.99s5.37-2.21,8.44-2.21,5.84,.74,8.4,2.21,4.58,3.47,6.07,5.99c1.48,2.52,2.22,5.29,2.22,8.31s-.75,5.78-2.24,8.29c-1.5,2.51-3.52,4.5-6.07,5.98-2.55,1.47-5.34,2.21-8.38,2.21s-5.87-.73-8.44-2.19c-2.56-1.46-4.59-3.45-6.08-5.98-1.5-2.52-2.24-5.29-2.24-8.31s.75-5.78,2.24-8.31Zm6.77,12.76c.79,1.36,1.87,2.45,3.23,3.25,1.36,.8,2.86,1.2,4.49,1.2s3.13-.4,4.5-1.2c1.38-.8,2.46-1.88,3.25-3.23,.79-1.35,1.18-2.84,1.18-4.47s-.39-3.13-1.18-4.5c-.79-1.38-1.87-2.46-3.25-3.27-1.38-.8-2.88-1.2-4.5-1.2s-3.12,.4-4.49,1.2c-1.36,.8-2.44,1.89-3.23,3.27-.79,1.38-1.18,2.88-1.18,4.5s.39,3.09,1.18,4.45Z"/><path class="cls-1" d="M324.58,33.42c1.89,1.15,3.34,2.79,4.34,4.92,1,2.13,1.51,4.62,1.51,7.47v16.94c0,.31-.09,.56-.27,.74-.18,.18-.44,.27-.77,.27h-5.74c-.34,0-.59-.09-.77-.27-.18-.18-.27-.42-.27-.74v-16.98c0-1.22-.3-2.34-.92-3.36-.61-1.02-1.44-1.81-2.48-2.39-1.04-.57-2.17-.86-3.39-.86-1.29,0-2.49,.31-3.59,.92-1.1,.61-1.97,1.46-2.62,2.55s-.97,2.3-.97,3.64v16.51c0,.69-.34,1.04-1.01,1.04h-5.74c-.67,0-1-.35-1-1.04v-29.11c0-.31,.09-.56,.27-.74,.18-.18,.44-.27,.77-.27h4.56c.57,0,.91,.22,1,.65l.61,3.23c1.15-1.51,2.58-2.69,4.29-3.55s3.55-1.29,5.51-1.29c2.56,0,4.79,.57,6.68,1.72Z"/><path class="cls-1" d="M365.07,32.88c.17,.14,.25,.34,.25,.57,0,.14-.04,.29-.11,.43l-12.38,29.07c-.1,.24-.28,.44-.56,.61-.28,.17-.57,.25-.88,.25h-4.2c-.31,0-.6-.08-.88-.25-.27-.17-.46-.37-.56-.61l-12.38-29.07c-.07-.14-.11-.29-.11-.43,0-.24,.08-.43,.25-.57,.17-.14,.37-.22,.61-.22h6.25c.31,0,.59,.08,.83,.25,.24,.17,.41,.38,.5,.65l7.61,20.46,7.57-20.46c.09-.26,.26-.48,.5-.65,.24-.17,.51-.25,.83-.25h6.25c.24,0,.44,.07,.61,.22Z"/><path class="cls-1" d="M389.35,33.21c2.14,.98,3.8,2.38,4.99,4.2,1.18,1.82,1.78,3.96,1.78,6.43v18.92c0,.34-.09,.6-.27,.79-.18,.19-.42,.29-.74,.29h-4.38c-.19,0-.37-.06-.52-.18-.16-.12-.26-.26-.31-.43l-.54-3.16c-1.1,1.46-2.56,2.61-4.38,3.46s-4.01,1.27-6.57,1.27c-2.23,0-4.21-.41-5.94-1.22s-3.09-1.97-4.06-3.48c-.97-1.51-1.45-3.27-1.45-5.28,0-2.92,.93-5.12,2.8-6.6s4.51-2.24,7.93-2.26l10.62-.04v-1.51c0-1.89-.61-3.39-1.83-4.5-1.22-1.11-2.78-1.67-4.67-1.67-1.48,0-3,.17-4.54,.52-1.54,.35-2.87,.83-3.97,1.45-.34,.14-.63,.22-.9,.22-.5,0-.83-.18-.97-.54l-1.72-3.34c-.1-.19-.14-.41-.14-.65,0-.57,.35-1.05,1.04-1.44,1.41-.86,3.14-1.53,5.19-2.01,2.05-.48,4.06-.72,6.05-.72,2.85,0,5.34,.49,7.48,1.47Zm-4.88,24.48c1.18-.57,2.12-1.36,2.82-2.37,.69-1,1.04-2.12,1.04-3.34v-.79h-9.58c-1.27,0-2.25,.28-2.94,.84-.69,.56-1.04,1.35-1.04,2.35,0,1.22,.56,2.22,1.69,3,1.12,.78,2.51,1.17,4.16,1.17,1.39,0,2.67-.29,3.86-.86Z"/><path class="cls-1" d="M405.73,22.62c-.74-.43-1.33-1.01-1.78-1.74-.44-.73-.66-1.53-.66-2.39s.22-1.66,.66-2.4c.44-.74,1.03-1.33,1.78-1.76,.74-.43,1.54-.65,2.4-.65s1.66,.22,2.4,.65c.74,.43,1.33,1.02,1.76,1.76,.43,.74,.65,1.54,.65,2.4s-.21,1.66-.65,2.39c-.43,.73-1.02,1.31-1.76,1.74-.74,.43-1.54,.65-2.4,.65s-1.66-.22-2.4-.65Zm6.01,10.3c.18,.17,.27,.41,.27,.72v29.22c0,.31-.09,.55-.27,.72-.18,.17-.42,.25-.74,.25h-5.81c-.65,0-.97-.32-.97-.97v-29.22c0-.65,.32-.97,.97-.97h5.81c.31,0,.56,.08,.74,.25Z"/><path class="cls-1" d="M444.35,33.42c1.89,1.15,3.34,2.79,4.34,4.92,1,2.13,1.51,4.62,1.51,7.47v16.94c0,.31-.09,.56-.27,.74-.18,.18-.44,.27-.77,.27h-5.74c-.34,0-.59-.09-.77-.27-.18-.18-.27-.42-.27-.74v-16.98c0-1.22-.3-2.34-.92-3.36-.61-1.02-1.44-1.81-2.48-2.39-1.04-.57-2.17-.86-3.39-.86-1.29,0-2.49,.31-3.59,.92-1.1,.61-1.97,1.46-2.62,2.55s-.97,2.3-.97,3.64v16.51c0,.69-.34,1.04-1.01,1.04h-5.74c-.67,0-1-.35-1-1.04v-29.11c0-.31,.09-.56,.27-.74,.18-.18,.44-.27,.77-.27h4.56c.57,0,.91,.22,1,.65l.61,3.23c1.15-1.51,2.58-2.69,4.29-3.55s3.55-1.29,5.51-1.29c2.56,0,4.79,.57,6.68,1.72Z"/><path class="cls-2" d="M210.05,81.46L236.15,2.39c.48-1.44,1.66-2.39,2.99-2.39h.09c2.25,0,3.8,2.63,2.99,5.08l-26.19,79.06c-.48,1.44-1.66,2.39-2.99,2.39h0c-2.25,0-3.8-2.63-2.99-5.07Z"/></g></svg>